<svg width="60" height="60" viewBox="0 0 60 60" fill="none" xmlns="http://www.w3.org/2000/svg">
<path d="M40.7144 42.8572C40.166 42.8572 39.6176 42.648 39.1992 42.2292L30 33.0299L20.8008 42.2292C20.3824 42.648 19.834 42.8572 19.2856 42.8572C18.7372 42.8572 18.1892 42.648 17.7708 42.2292C16.9336 41.3924 16.9336 40.036 17.7708 39.1992L26.9701 30L17.7708 20.8008C16.9336 19.9635 16.9336 18.6076 17.7708 17.7708C18.6076 16.9341 19.964 16.9336 20.8008 17.7708L30 26.9701L39.1992 17.7708C40.0365 16.9336 41.3924 16.9336 42.2292 17.7708C43.0659 18.6076 43.0664 19.964 42.2292 20.8008L33.0299 30L42.2292 39.1992C43.0664 40.0365 43.0664 41.3924 42.2292 42.2292C41.8108 42.648 41.2628 42.8572 40.7144 42.8572Z" fill="#E9971D"/>
<path fill-rule="evenodd" clip-rule="evenodd" d="M30 60C13.4578 60 0 46.5422 0 30C0 13.4578 13.4578 0 30 0C46.5422 0 60 13.4578 60 30C60 46.5422 46.5422 60 30 60ZM30 4.28558C15.8212 4.28558 4.28558 15.8212 4.28558 30C4.28558 44.1788 15.8212 55.7144 30 55.7144C44.1788 55.7144 55.7144 44.1788 55.7144 30C55.7144 15.8212 44.1788 4.28558 30 4.28558Z" fill="#E9971D"/>
</svg>
